<mxfile modified="2022-04-12T02:05:02.961Z" host="app.diagrams.net" agent="5.0 (Windows NT 10.0; Win64; x64) AppleWebKit/537.36 (KHTML, like Gecko) Chrome/100.0.4896.75 Safari/537.36" etag="F2r7bbOHkTRjYsKq0Bvs" version="17.4.2" type="github">
  <diagram id="l2aKFoh6-Bn0gOPZ2l0T" name="Page-1">
    <mxGraphModel dx="716" dy="1270" grid="1" gridSize="10" guides="1" tooltips="1" connect="1" arrows="1" fold="1" page="1" pageScale="1" pageWidth="1169" pageHeight="827" math="0" shadow="0">
      <root>
        <mxCell id="0" />
        <mxCell id="1" parent="0" />
        <mxCell id="mpq5AgpwV83IM184FDqD-16" value="" style="shape=image;verticalLabelPosition=bottom;verticalAlign=top;imageAspect=0;image=https://jgraph.github.io/drawio-libs/libs/arista/DCS-7308.svg;html=1;verticalLabelPosition=bottom;labelBackgroundColor=#ffffff;verticalAlign=top;outlineConnect=0;container=1;collapsible=0;childLayout=rack;rackUnitSize=16.7;allowGaps=1;marginLeft=8;marginRight=8;marginTop=27;marginBottom=22;textColor=#666666;aspect=fixed;" parent="1" vertex="1">
          <mxGeometry x="690" y="70" width="178" height="214.58" as="geometry" />
        </mxCell>
        <mxCell id="mpq5AgpwV83IM184FDqD-30" value="" style="shape=image;verticalLabelPosition=bottom;verticalAlign=top;imageAspect=0;image=https://jgraph.github.io/drawio-libs/libs/arista/DCS-7050Q-16.svg;aspect=fixed;" parent="mpq5AgpwV83IM184FDqD-16" vertex="1">
          <mxGeometry x="8" y="27" width="162" height="16.7" as="geometry" />
        </mxCell>
        <mxCell id="mpq5AgpwV83IM184FDqD-32" value="" style="shape=image;verticalLabelPosition=bottom;verticalAlign=top;imageAspect=0;image=https://jgraph.github.io/drawio-libs/libs/arista/DCS-7050Q-16.svg;aspect=fixed;" parent="mpq5AgpwV83IM184FDqD-16" vertex="1">
          <mxGeometry x="8" y="60.4" width="162" height="16.7" as="geometry" />
        </mxCell>
        <mxCell id="mpq5AgpwV83IM184FDqD-31" value="" style="shape=image;verticalLabelPosition=bottom;verticalAlign=top;imageAspect=0;image=https://jgraph.github.io/drawio-libs/libs/arista/DCS-7050Q-16.svg;aspect=fixed;" parent="mpq5AgpwV83IM184FDqD-16" vertex="1">
          <mxGeometry x="8" y="43.7" width="162" height="16.7" as="geometry" />
        </mxCell>
        <mxCell id="mpq5AgpwV83IM184FDqD-33" value="" style="shape=image;verticalLabelPosition=bottom;verticalAlign=top;imageAspect=0;image=https://jgraph.github.io/drawio-libs/libs/arista/DCS-7010T-48.svg;aspect=fixed;" parent="mpq5AgpwV83IM184FDqD-16" vertex="1">
          <mxGeometry x="8" y="77.1" width="162" height="16.7" as="geometry" />
        </mxCell>
        <mxCell id="mpq5AgpwV83IM184FDqD-35" value="" style="shape=image;verticalLabelPosition=bottom;verticalAlign=top;imageAspect=0;image=https://jgraph.github.io/drawio-libs/libs/arista/DCS-7050TX-128.svg;aspect=fixed;" parent="mpq5AgpwV83IM184FDqD-16" vertex="1">
          <mxGeometry x="8" y="110.5" width="162" height="33.4" as="geometry" />
        </mxCell>
        <mxCell id="mpq5AgpwV83IM184FDqD-34" value="" style="shape=image;verticalLabelPosition=bottom;verticalAlign=top;imageAspect=0;image=https://jgraph.github.io/drawio-libs/libs/arista/DCS-7010T-48.svg;aspect=fixed;" parent="mpq5AgpwV83IM184FDqD-16" vertex="1">
          <mxGeometry x="8" y="93.8" width="162" height="16.7" as="geometry" />
        </mxCell>
        <mxCell id="mpq5AgpwV83IM184FDqD-36" value="" style="shape=image;verticalLabelPosition=bottom;verticalAlign=top;imageAspect=0;image=https://jgraph.github.io/drawio-libs/libs/arista/DCS-7150S-24.svg;aspect=fixed;" parent="mpq5AgpwV83IM184FDqD-16" vertex="1">
          <mxGeometry x="8" y="143.89999999999998" width="162" height="16.7" as="geometry" />
        </mxCell>
        <mxCell id="mpq5AgpwV83IM184FDqD-17" value="" style="shape=image;verticalLabelPosition=bottom;verticalAlign=top;imageAspect=0;image=https://jgraph.github.io/drawio-libs/libs/arista/DCS-7304.svg;html=1;verticalLabelPosition=bottom;labelBackgroundColor=#ffffff;verticalAlign=top;outlineConnect=0;container=1;collapsible=0;childLayout=rack;rackUnitSize=16.7;allowGaps=1;marginLeft=8;marginRight=8;marginTop=27;marginBottom=22;textColor=#666666;aspect=fixed;" parent="1" vertex="1">
          <mxGeometry x="560" y="310" width="178" height="131.79" as="geometry" />
        </mxCell>
        <mxCell id="mpq5AgpwV83IM184FDqD-37" value="" style="shape=image;verticalLabelPosition=bottom;verticalAlign=top;imageAspect=0;image=https://jgraph.github.io/drawio-libs/libs/arista/DCS-7500E-12CM-LC.svg;aspect=fixed;" parent="mpq5AgpwV83IM184FDqD-17" vertex="1">
          <mxGeometry x="8" y="27" width="162" height="16.7" as="geometry" />
        </mxCell>
        <mxCell id="mpq5AgpwV83IM184FDqD-38" value="" style="shape=image;verticalLabelPosition=bottom;verticalAlign=top;imageAspect=0;image=https://jgraph.github.io/drawio-libs/libs/arista/DCS-7500E-12CQ-LC.svg;aspect=fixed;" parent="mpq5AgpwV83IM184FDqD-17" vertex="1">
          <mxGeometry x="8" y="43.7" width="162" height="16.7" as="geometry" />
        </mxCell>
        <mxCell id="mpq5AgpwV83IM184FDqD-39" value="" style="shape=image;verticalLabelPosition=bottom;verticalAlign=top;imageAspect=0;image=https://jgraph.github.io/drawio-libs/libs/arista/DCS-7500E-6C2-LC.svg;aspect=fixed;" parent="mpq5AgpwV83IM184FDqD-17" vertex="1">
          <mxGeometry x="8" y="60.4" width="162" height="16.7" as="geometry" />
        </mxCell>
        <mxCell id="FLryq4KdTPS2IWGbZQhq-2" value="" style="strokeColor=#666666;html=1;verticalLabelPosition=bottom;labelBackgroundColor=#ffffff;verticalAlign=top;outlineConnect=0;shadow=0;dashed=0;shape=mxgraph.rackGeneral.container;fillColor2=#f4f4f4;container=1;collapsible=0;childLayout=rack;allowGaps=1;marginLeft=33;marginRight=9;marginTop=21;marginBottom=22;textColor=#666666;numDisp=ascend;" vertex="1" parent="1">
          <mxGeometry x="220" y="-90" width="210" height="900" as="geometry" />
        </mxCell>
      </root>
    </mxGraphModel>
  </diagram>
</mxfile>
